/* XPM */
static char *gpc64[] = {
/* columns rows colors chars-per-pixel */
"64 64 86 1 ",
"  c #0A853D",
". c #0A863E",
"X c #0A873E",
"o c #0A883E",
"O c #0A883F",
"+ c #0A893F",
"@ c #0A8A3F",
"# c #0B8A3F",
"$ c #10893E",
"% c #108B3F",
"& c #138A3E",
"* c #148B3F",
"= c #2E923E",
"- c #459B3F",
"; c #489A3E",
": c #499E3F",
"> c #5DA33D",
", c #5CA53E",
"< c #5DA73F",
"1 c #5EA83F",
"2 c #6FAC3B",
"3 c #71AF3D",
"4 c #71B03D",
"5 c #74B53F",
"6 c #7CB038",
"7 c #7DB138",
"8 c #7EB43A",
"9 c #7FB73B",
"0 c #7FB83C",
"q c #0A8A40",
"w c #0A8B40",
"e c #0B8B40",
"r c #0A8C40",
"t c #0B8C40",
"y c #0A8C41",
"u c #0A8D41",
"i c #0B8D41",
"p c #0A8E41",
"a c #0B8E41",
"s c #0A8F42",
"d c #0B8F42",
"f c #0D8D40",
"g c #138E40",
"h c #0B9042",
"j c #0B9142",
"k c #0B9143",
"l c #0B9344",
"z c #109242",
"x c #2B9540",
"c c #2D9640",
"v c #2E9640",
"b c #2E9A42",
"n c #309D43",
"m c #459E40",
"M c #47A342",
"N c #60AF43",
"B c #75B941",
"V c #80B539",
"C c #80B53A",
"Z c #81B63A",
"A c #81B73A",
"S c #82B73A",
"D c #82B83A",
"F c #82B83B",
"G c #83B93B",
"H c #83BA3B",
"J c #84BA3B",
"K c #84BB3B",
"L c #84BB3C",
"P c #85BB3C",
"I c #83BE3E",
"U c #85BC3C",
"Y c #85BD3C",
"T c #86BD3C",
"R c #86BE3C",
"E c #86BE3D",
"W c #87BF3D",
"Q c #87C03D",
"! c #86C33F",
"~ c #88C03D",
"^ c #88C13D",
"/ c #89C13E",
"( c #89C23E",
") c #8AC33E",
"_ c #8CC63F",
"` c None",
/* pixels */
"````````````````````````````````````````````````````````````````",
"````````````````````````````````````````````````````````````````",
"````````````````````````````````````````````````````````````````",
"````````````````````````````````````````````````````````````````",
"````````````````````````````````````````````````````````````````",
"````````````````````````````````````````````````````````````````",
"````````````````````````````````````````````````````````````````",
"````````````````````````````````````````````````````````````````",
"````````````````````````````````````````````````````````````````",
"``````````````````````````````d``yh`````````````````````````````",
"``````````````````````````````h``qh`````````````````````````````",
"``````````````````````````````h``X``````````````````````````````",
"``````````````````````````````h``@``````````````````````````````",
"``````````````````````````````d``qyXd```````````````````````````",
"`````````````````````````````yhy@y@``q@yy@``````````````````````",
"```````````````````````````qy@h``X````````qy````````````````````",
"`````````````````````````qy```h``X``````````yq``````````````````",
"````````````````````````y@````d`@dyX@d@``````*nm````````````````",
"```````````````````````y`````yhy`@X````qy@````m`````````````````",
"``````````````````````y````@y@h``@X``````Xh$````````````````````",
"`````````````````````y````yy``h`@dd@Oe@``qd`````````````````````",
"````````````````````y````y````hy`@X````yy```````````````````````",
"```````````````````qq```y```yyh``X``````````````````````````````",
"```````````````````y```y```y@`h``@``````````````````````````````",
"``````````````````@```@y``y```h``@``````````````````````````````",
"``````````````````y```q``@@```h``X``````````````````````````````",
"``````````````````@``@@``y````h``X``````````````````````````````",
"`````````````````y```y``q`````h``@``````````````````````````````",
"`````````````````y```y``y`````@`````````````````````````````````",
"`````````````````@```@``y```````````````````````````````````````",
"`````````````````y``@``@``````@@$=;>28ZZZZ8ZZZZ`````````````````",
"`````````````````X``@``y``````y```````````````W`````````````````",
"`````````````````X``@``l``````z```````````````^`````````````````",
"`````````````````@``X``@``````b```````````````^`````````````````",
"`````````````````d``q``@``````MNB!________^K``^`````````````````",
"`````````````````@```@``q``````````````````F``^`````````````````",
"`````````````````y```y``y`````B````````````F``^`````````````````",
"`````````````````q```y``q%````U``Z`````````F``^`````````````````",
"``````````````````q```q``c````^``Z`````````F``^`````````````````",
"``````````````````y```y```1```^``Z`````````F``^`````````````````",
"``````````````````@q```c``4F``^``8`````````F``^`````````````````",
"```````````````````y```:<``FU`^``Z`````````F``^`````````````````",
"````````````````````g```48```U^``Z`````FU``K``^`````````````````",
"````````````````````c-```KK```^UFUF``KF^^``FU`U`````````````````",
"`````````````````````1````FP``^``KK7Z``````77PQ`````````````````",
"``````````````````````F`````KW^``Z```````KKKK77`````````````````",
"```````````````````````FZ`````^PFUK``FKKK````PF`````````````````",
"````````````````````````KK````W``KPZU````````KU`````````````````",
"``````````````````````````PF``^``8`````````FU```````````````````",
"````````````````````````````KW^``Z```````FUZ````````````````````",
"``````````````````````````````^UUU^_^ZUKF```````````````````````",
"``````````````````````````````^``FP`````````````````````````````",
"``````````````````````````````^``Z``````````````````````````````",
"``````````````````````````````!``U^`````````````````````````````",
"``````````````````````````````U``K^`````````````````````````````",
"````````````````````````````````````````````````````````````````",
"````````````````````````````````````````````````````````````````",
"````````````````````````````````````````````````````````````````",
"````````````````````````````````````````````````````````````````",
"````````````````````````````````````````````````````````````````",
"````````````````````````````````````````````````````````````````",
"````````````````````````````````````````````````````````````````",
"````````````````````````````````````````````````````````````````",
"````````````````````````````````````````````````````````````````"
};
